<?xml version="1.0" encoding="utf-8"?>
<!-- Generator: Adobe Illustrator 17.0.0, SVG Export Plug-In . SVG Version: 6.00 Build 0)  -->
<!DOCTYPE svg PUBLIC "-//W3C//DTD SVG 1.1//EN" "http://www.w3.org/Graphics/SVG/1.1/DTD/svg11.dtd">
<svg version="1.1" id="Calque_1" xmlns="http://www.w3.org/2000/svg" xmlns:xlink="http://www.w3.org/1999/xlink" x="0px" y="0px"
	 width="19.5px" height="18.562px" viewBox="0 0 19.5 18.562" enable-background="new 0 0 19.5 18.562" xml:space="preserve">
<g>
	
		<polyline fill="none" stroke="#DCDCDC" stroke-width="3" stroke-linecap="round" stroke-linejoin="round" stroke-miterlimit="10" points="
		17.5,12 17.5,16.5 1.5,16.5 1.5,12 	"/>
	<path fill="#DCDCDC" d="M15.406,5.168l-4.445-4.786C10.735,0.139,10.417,0,10.084,0C9.751,0,9.433,0.139,9.207,0.382L4.668,5.268
		c-0.324,0.349-0.411,0.857-0.22,1.293c0.19,0.437,0.622,0.719,1.098,0.719h1.76v4.191c0,0.661,0.536,1.197,1.197,1.197h2.994
		c0.661,0,1.197-0.536,1.197-1.197V7.281h1.928c0.004-0.001,0.008,0,0.012,0c0.661,0,1.197-0.536,1.197-1.197
		C15.831,5.716,15.666,5.388,15.406,5.168z"/>
</g>
</svg>
